<svg width="23" height="13" viewBox="0 0 23 13" fill="none" xmlns="http://www.w3.org/2000/svg">
<path d="M16.6715 1.07214C16.2378 0.638389 15.6594 0.638389 15.3703 1.07214L9.87611 6.5663L11.1774 7.86755L16.6715 2.37339C17.1053 2.08422 17.1053 1.50589 16.6715 1.07214ZM20.8644 1.07214L11.3219 10.6146L7.99653 7.28922C7.56278 6.85547 6.98444 6.85547 6.69528 7.28922C6.40611 7.72297 6.26153 8.3013 6.69528 8.59047L10.7436 12.6388C11.1774 13.0726 11.7557 13.0726 12.0449 12.6388L22.3103 2.37339C22.744 1.93964 22.744 1.36131 22.3103 1.07214C21.7319 0.638389 21.1536 0.638389 20.8644 1.07214ZM1.05653 8.59047L5.10486 12.6388C5.53861 13.0726 6.11694 13.0726 6.40611 12.6388L7.12903 11.9159L2.50236 7.28922C2.06861 6.85547 1.49028 6.85547 1.05653 7.28922C0.622779 7.72297 0.767362 8.3013 1.05653 8.59047Z" fill="white"/>
</svg>
