<svg width="60" height="42" viewBox="0 0 60 42" fill="none" xmlns="http://www.w3.org/2000/svg">
<path d="M2.31214 0H57.6879C58.9595 0 60 1.05292 60 2.33983V39.6602C60 40.9471 58.9595 42 57.6879 42H2.31214C1.04046 42 0 40.9471 0 39.6602V2.33983C0 1.05292 1.04046 0 2.31214 0Z" fill="white"/>
<path d="M2.31232 1.16992H57.688C58.3817 1.16992 58.8441 1.63789 58.8441 2.33984V39.6602C58.8441 40.3621 58.3817 40.8301 57.688 40.8301H2.31232C1.61868 40.8301 1.15625 40.3621 1.15625 39.6602V2.33984C1.15625 1.63789 1.61868 1.16992 2.31232 1.16992Z" stroke="#050505" stroke-width="2"/>
<path d="M29.3646 30.7681C29.7114 31.0021 30.2895 31.0021 30.6363 30.7681L55.8386 13.3363C56.7634 12.6344 56.301 11.2305 55.145 11.2305H4.74033C3.58426 11.2305 3.12183 12.7514 4.04669 13.3363L29.3646 30.7681Z" fill="url(#paint0_linear_10_221)"/>
<path d="M31.0985 22.6966L57.9193 3.39296C58.8442 2.69101 58.3818 1.28711 57.2257 1.28711H3.58408C2.42801 1.28711 1.96558 2.69101 2.89044 3.39296L29.7112 22.6966C30.1737 23.0476 30.7517 23.0476 31.0985 22.6966Z" stroke="#050505" stroke-width="2"/>
<path d="M2.0812 38.2565L22.0812 18.017C22.5436 17.549 23.2373 17.549 23.6997 18.017C24.1621 18.485 24.1621 19.1869 23.6997 19.6549L3.69969 40.0114C3.23727 40.4794 2.54362 40.4794 2.0812 40.0114C1.61877 39.5435 1.61877 38.7245 2.0812 38.2565ZM56.1852 40.3624L46.0118 30.0671C45.5494 29.5992 45.5494 28.8972 46.0118 28.4292C46.4743 27.9613 47.1679 27.9613 47.6303 28.4292L57.8037 38.7245C58.2662 39.1925 58.2662 39.8944 57.8037 40.3624C57.4569 40.8304 56.6477 40.8304 56.1852 40.3624ZM41.0407 25.0365L36.1852 20.1228C35.7228 19.6549 35.7228 18.9529 36.1852 18.485C36.6477 18.017 37.3413 18.017 37.8037 18.485L42.6592 23.3986C43.1217 23.8666 43.1217 24.5685 42.6592 25.0365C42.3124 25.3875 41.5032 25.3875 41.0407 25.0365Z" fill="#050505"/>
<defs>
<linearGradient id="paint0_linear_10_221" x1="-3.4169" y1="21.0765" x2="63.4455" y2="21.0765" gradientUnits="userSpaceOnUse">
<stop stop-color="#FFBD39"/>
<stop offset="1" stop-color="#F9953A"/>
</linearGradient>
</defs>
</svg>
