<svg width="83" height="67" viewBox="0 0 83 67" fill="none" xmlns="http://www.w3.org/2000/svg">
<path d="M67.3447 23.7266H11.3185C10.0272 23.7266 8.98047 24.7791 8.98047 26.0774V63.6315C8.98047 64.9299 10.0272 65.9824 11.3185 65.9824H67.3447C68.6359 65.9824 69.6827 64.9299 69.6827 63.6315V26.0774C69.6827 24.7791 68.6359 23.7266 67.3447 23.7266Z" fill="white"/>
<path d="M67.3436 24.9023H11.3175C10.6718 24.9023 10.1484 25.4286 10.1484 26.0778V63.6319C10.1484 64.281 10.6718 64.8073 11.3175 64.8073H67.3436C67.9893 64.8073 68.5126 64.281 68.5126 63.6319V26.0778C68.5126 25.4286 67.9893 24.9023 67.3436 24.9023Z" stroke="#050505" stroke-width="2"/>
<path d="M38.6705 54.6519C38.865 54.7858 39.0953 54.8575 39.331 54.8575C39.5668 54.8575 39.797 54.7858 39.9915 54.6519L65.4924 37.0944C66.4393 36.442 65.981 34.9492 64.8307 34.9492H13.8313C12.6822 34.9492 12.2228 36.442 13.1708 37.0944L38.6717 54.6519H38.6705Z" fill="url(#paint0_linear_10_198)"/>
<path d="M40.4237 46.5631L67.5425 27.1178C68.4683 26.4525 68.0007 24.9844 66.8644 24.9844H12.628C11.4906 24.9844 11.023 26.4537 11.95 27.1178L39.0653 46.5631C39.2635 46.7053 39.5009 46.7818 39.7445 46.7818C39.988 46.7818 40.2255 46.7053 40.4237 46.5631V46.5631Z" stroke="#050505" stroke-width="2"/>
<path d="M31.2556 41.914L11.0688 62.2118C10.6123 62.6708 10.6123 63.4151 11.0688 63.8741C11.5253 64.3332 12.2655 64.3332 12.722 63.8741L32.9089 43.5764C33.3654 43.1173 33.3654 42.3731 32.9089 41.914C32.4523 41.455 31.7122 41.455 31.2556 41.914Z" fill="#050505"/>
<path d="M55.5572 53.8984L65.8453 64.2431C66.3018 64.7021 67.042 64.7021 67.4985 64.2431C67.955 63.784 67.955 63.0398 67.4985 62.5807L57.2104 52.2361C56.7539 51.7771 56.0137 51.7771 55.5572 52.2361C55.1006 52.6952 55.1006 53.4394 55.5572 53.8984Z" fill="#050505"/>
<path d="M45.6608 43.944L50.5171 48.827C50.9737 49.2861 51.7138 49.2861 52.1704 48.827C52.6269 48.368 52.6269 47.6238 52.1704 47.1647L47.314 42.2816C46.8575 41.8226 46.1173 41.8226 45.6608 42.2816C45.2042 42.7407 45.2042 43.4849 45.6608 43.944Z" fill="#050505"/>
<path fill-rule="evenodd" clip-rule="evenodd" d="M61.5909 41.8836C72.7702 41.8836 81.8335 32.7704 81.8335 21.5297C81.8324 10.289 72.7702 1.17578 61.5909 1.17578C50.4116 1.17578 41.3482 10.289 41.3482 21.5297C41.3482 25.0384 42.232 28.3402 43.7868 31.2212C41.243 34.436 37.6962 36.627 34.423 38.0704C33.3499 38.5453 33.4258 40.1651 34.5808 40.3661C38.9997 41.1301 45.6619 41.5533 50.2865 38.4149C53.625 40.6813 57.5627 41.8891 61.5909 41.8824V41.8836Z" fill="white"/>
<path d="M43.3062 31.222L44.2216 31.9531L44.7032 31.3442L44.3338 30.6613L43.3062 31.222ZM33.9448 38.0713L33.4748 36.9946L33.9448 38.0713ZM34.1014 40.3657L34.3001 39.2068L34.1014 40.3657ZM49.8071 38.4157L50.4606 37.4412L49.806 36.9981L49.1525 37.4412L49.8071 38.4169V38.4157ZM80.1839 21.5293C80.1839 32.1212 71.6443 40.7078 61.1103 40.7078V43.0587C72.9349 43.0587 82.522 33.4201 82.522 21.5293H80.1839ZM61.1115 2.35088C71.6443 2.35088 80.1851 10.9375 80.1851 21.5293H82.5232C82.522 9.6386 72.9361 0 61.1115 0V2.35088ZM42.0379 21.5293C42.0379 10.9386 50.5775 2.35088 61.1115 2.35088V0C49.2857 0 39.6998 9.6386 39.6998 21.5293H42.0379ZM44.3338 30.6613C42.8223 27.8578 42.033 24.7183 42.0379 21.5293H39.6998C39.6998 25.239 40.6339 28.7324 42.2798 31.7827L44.335 30.6613H44.3338ZM34.4147 39.148C37.7826 37.6599 41.5165 35.3713 44.2216 31.9543L42.3921 30.4897C40.0096 33.4988 36.6487 35.5935 33.4748 36.9946L34.4147 39.1468V39.148ZM34.3001 39.2068C34.2861 39.2044 34.2908 39.2032 34.3048 39.2115C34.3189 39.2197 34.3317 39.2314 34.3422 39.2444C34.3621 39.2679 34.3551 39.2749 34.3539 39.2514C34.3524 39.2281 34.3577 39.2048 34.3691 39.1844C34.3726 39.1762 34.3773 39.1715 34.382 39.1668C34.3916 39.1582 34.4027 39.1514 34.4147 39.1468L33.4748 36.9946C33.0169 37.1955 32.6317 37.5333 32.3714 37.9621C32.1112 38.391 31.9887 38.89 32.0206 39.3913C32.0755 40.3364 32.7068 41.3167 33.9027 41.5235L34.3001 39.2079V39.2068ZM49.1525 37.4412C47.0716 38.8518 44.4764 39.4983 41.797 39.6805C39.1258 39.8627 36.4546 39.5794 34.3001 39.2068L33.9027 41.5235C36.1659 41.915 39.0347 42.2253 41.956 42.0266C44.8692 41.8268 47.9168 41.1157 50.4606 39.3901L49.1525 37.4412ZM61.1115 40.7078C57.3162 40.7146 53.6061 39.5767 50.4606 37.4412L49.1525 39.3901C52.6848 41.7867 56.8503 43.064 61.1115 43.0575V40.7066V40.7078Z" fill="#050505"/>
<path d="M50.3879 23.9467C51.7153 23.9467 52.7914 22.8647 52.7914 21.53C52.7914 20.1953 51.7153 19.1133 50.3879 19.1133C49.0605 19.1133 47.9844 20.1953 47.9844 21.53C47.9844 22.8647 49.0605 23.9467 50.3879 23.9467Z" stroke="#050505" stroke-width="2"/>
<path d="M61.1066 23.9467C62.434 23.9467 63.5101 22.8647 63.5101 21.53C63.5101 20.1953 62.434 19.1133 61.1066 19.1133C59.7792 19.1133 58.7031 20.1953 58.7031 21.53C58.7031 22.8647 59.7792 23.9467 61.1066 23.9467Z" stroke="#050505" stroke-width="2"/>
<path d="M71.8215 23.9467C73.1489 23.9467 74.225 22.8647 74.225 21.53C74.225 20.1953 73.1489 19.1133 71.8215 19.1133C70.4941 19.1133 69.418 20.1953 69.418 21.53C69.418 22.8647 70.4941 23.9467 71.8215 23.9467Z" stroke="#050505" stroke-width="2"/>
<defs>
<linearGradient id="paint0_linear_10_198" x1="5.52548" y1="41.668" x2="73.1366" y2="41.668" gradientUnits="userSpaceOnUse">
<stop stop-color="#FFBD39"/>
<stop offset="1" stop-color="#F9953A"/>
</linearGradient>
</defs>
</svg>
